<svg width="97" height="98" xmlns="http://www.w3.org/2000/svg" xmlns:xlink="http://www.w3.org/1999/xlink" xml:space="preserve" overflow="hidden"><g transform="translate(-776 -446)"><g><g><g><g><path d="M824.979 457C804.004 457 787 474.004 787 494.979 787 515.954 804.004 532.958 824.979 532.958 845.954 532.958 862.958 515.954 862.958 494.979 862.958 494.978 862.958 494.977 862.958 494.976 862.965 474.01 845.974 457.007 825.008 457 824.998 457 824.989 457 824.979 457ZM834.179 496.793C828.646 502.316 823.079 507.889 817.479 513.51 812.72 508.729 807.95 503.959 803.169 499.2L807.95 494.419 817.479 503.948C822.105 499.255 826.705 494.596 831.279 489.969 835.85 485.343 838.379 482.86 843.12 478.278 843.253 478.145 843.396 478.013 843.551 477.878 843.701 477.751 843.836 477.606 843.951 477.446L848.799 482.227C843.168 487.827 839.712 491.267 834.178 496.79Z" fill="#00B050" fill-rule="nonzero" fill-opacity="1"/></g></g></g></g></g></svg>